<?xml version="1.0" encoding="iso-8859-1"?>
<!-- Generator: Adobe Illustrator 18.0.0, SVG Export Plug-In . SVG Version: 6.00 Build 0)  -->
<!DOCTYPE svg PUBLIC "-//W3C//DTD SVG 1.1//EN" "http://www.w3.org/Graphics/SVG/1.1/DTD/svg11.dtd">
<svg version="1.1" id="Capa_1" xmlns="http://www.w3.org/2000/svg" xmlns:xlink="http://www.w3.org/1999/xlink" x="0px" y="0px"
	 viewBox="0 0 465.425 465.425" style="enable-background:new 0 0 465.425 465.425;" xml:space="preserve">
<g>
	<path style="fill:#4479FA;" d="M362.529,241.94c0.615,0.255,1.261,0.379,1.902,0.379c1.294,0,2.566-0.505,3.517-1.457
		l73.441-73.441L367.948,93.98c-1.422-1.422-3.561-1.847-5.419-1.078c-1.858,0.77-3.07,2.583-3.07,4.594l0,30.281
		c0,5.933-4.809,10.742-10.742,10.742H234.358c-5.93,0-10.738,4.804-10.742,10.734l-0.13,171.77
		c-0.004,5.93-4.813,10.734-10.742,10.734H30.742c-5.932,0-10.742,4.809-10.742,10.741v36.664c0,5.934,4.809,10.74,10.742,10.74
		c46.092,0,212.759,0,257.138,0c5.932,0,10.742-4.808,10.742-10.739V222.639l0-0.001v-16.999c0-5.933,4.809-10.742,10.742-10.742
		h39.352c5.933,0,10.742,4.81,10.742,10.742v17v14.707C359.459,239.357,360.671,241.17,362.529,241.94z"/>
	<path style="fill:#2C3D8E;" d="M364.431,75.523c1.294,0,2.566,0.505,3.517,1.457l74.345,74.345c4.195,4.195,4.195,10.997,0,15.192
		l-74.345,74.345c-0.951,0.951-2.223,1.457-3.517,1.457c-0.64,0-1.287-0.124-1.902-0.379c-1.858-0.77-3.07-2.583-3.07-4.594v-31.707
		c0-5.933-4.809-10.742-10.742-10.742h-39.352c-5.933,0-10.742,4.81-10.742,10.742v173.522c0,5.932-4.81,10.74-10.742,10.74
		c-44.379,0-211.046,0-257.138,0c-5.933,0-10.742-4.807-10.742-10.74v-53.663c0-5.933,4.809-10.742,10.742-10.742h182.001
		c5.929,0,10.738-4.804,10.742-10.734l0.13-171.77c0.005-5.929,4.813-10.734,10.742-10.734h114.359
		c5.933,0,10.742-4.81,10.742-10.742l0-30.281c0-2.011,1.211-3.824,3.07-4.594C363.144,75.647,363.79,75.523,364.431,75.523
		 M364.431,55.523c-3.295,0-6.51,0.64-9.555,1.901c-9.365,3.879-15.416,12.935-15.416,23.072l0,21.023H234.358
		c-16.938,0-30.729,13.78-30.742,30.719l-0.123,162.519H30.742C13.791,294.756,0,308.547,0,325.499v53.663
		c0,16.95,13.791,30.74,30.742,30.74H287.88c16.951,0,30.742-13.79,30.742-30.74V214.896h20.836v22.449
		c0,10.137,6.052,19.194,15.417,23.072c3.045,1.261,6.259,1.901,9.554,1.901c6.671,0,12.943-2.598,17.659-7.314l74.345-74.345
		c11.986-11.987,11.986-31.49,0-43.476L382.09,62.838C377.373,58.121,371.102,55.523,364.431,55.523L364.431,55.523z"/>
</g>
<g>
</g>
<g>
</g>
<g>
</g>
<g>
</g>
<g>
</g>
<g>
</g>
<g>
</g>
<g>
</g>
<g>
</g>
<g>
</g>
<g>
</g>
<g>
</g>
<g>
</g>
<g>
</g>
<g>
</g>
</svg>
